Coordinates
version=1
nRows=24
nColumns=22
inDegrees=yes

Units are S.I. units (second, meters, Newtons, ...)
If the header above contains a line with 'inDegrees', this indicates whether rotational values are in degrees (yes) or radians (no).

endheader
time	pelvis_tilt	pelvis_list	pelvis_rotation	pelvis_tx	pelvis_ty	pelvis_tz	hip_flexion_r	hip_adduction_r	hip_rotation_r	knee_angle_r	ankle_angle_r	subtalar_angle_r	hip_flexion_l	hip_adduction_l	hip_rotation_l	knee_angle_l	ankle_angle_l	subtalar_angle_l	lumbar_extension	lumbar_bending	lumbar_rotation
      3.65000000	      9.59200710	     -0.84055574	     11.04866534	      0.92386877	      0.91426517	      0.05252735	     15.14527545	      0.90708410	    -15.43687329	    -12.40125696	     -4.34298497	      2.74151343	    -17.01389293	     -1.22687121	      0.75219915	    -27.29680619	     27.55777925	    -10.15734398	    -11.55703812	      2.58628434	    -17.16618122
      3.66000000	      9.58005590	     -1.40175570	     11.11657056	      0.93450756	      0.91435025	      0.05325846	     15.14780361	      1.56048232	    -15.56969331	    -13.30520572	     -5.07787520	      2.09000982	    -17.08346905	     -1.96336652	      0.85587237	    -28.19196682	     26.77727322	     -9.74614610	    -11.17694301	      3.14348101	    -17.13350507
      3.67000000	      9.58982927	     -1.97702489	     11.19145195	      0.94513015	      0.91471788	      0.05396999	     15.05796030	      2.23519637	    -15.67182126	    -14.09449630	     -5.63197003	      1.76337028	    -17.09330643	     -2.71241128	      0.97939332	    -29.20096877	     25.83527678	     -9.48233276	    -10.80755193	      3.72101146	    -17.10583914
      3.68000000	      9.60837325	     -2.54315309	     11.22515054	      0.95577519	      0.91529713	      0.05473849	     14.92790314	      2.90448489	    -15.77491477	    -14.86155221	     -5.77278055	      1.39334592	    -17.05081626	     -3.45535270	      1.00012123	    -30.29270226	     24.61735342	     -8.79444111	    -10.43603890	      4.27984521	    -17.02973575
      3.69000000	      9.64696199	     -3.13640653	     11.28721276	      0.96637214	      0.91611286	      0.05544931	     14.68051140	      3.62066050	    -15.85633287	    -15.45057221	     -5.79116579	      1.27260925	    -16.92930523	     -4.22713317	      1.07059138	    -31.50764855	     23.29175339	     -8.44428766	    -10.06876216	      4.87888998	    -16.96172567
      3.70000000	      9.69563078	     -3.69896444	     11.32900397	      0.97687966	      0.91709594	      0.05618714	     14.36747814	      4.32255031	    -15.91042431	    -15.96072213	     -5.56294114	      1.16600447	    -16.73062079	     -4.97090159	      1.09708736	    -32.83361271	     21.70568648	     -7.84509410	     -9.72141429	      5.43747145	    -16.85607980
      3.71000000	      9.77363661	     -4.21226077	     11.36240760	      0.98722827	      0.91823974	      0.05693112	     13.96629933	      4.99708461	    -15.92990538	    -16.38434398	     -5.20113524	      1.07383065	    -16.46638655	     -5.67429597	      1.09378442	    -34.27673614	     19.90286891	     -7.25264262	     -9.43125686	      5.94229178	    -16.73980554
      3.72000000	      9.86211463	     -4.70066233	     11.40437294	      0.99740457	      0.91946919	      0.05765179	     13.48983210	      5.66702312	    -15.93869266	    -16.68698591	     -4.77719879	      0.97867080	    -16.10570550	     -6.35899587	      1.10287069	    -35.84076886	     17.95314315	     -6.76218895	     -9.16817166	      6.42066563	    -16.59655094
      3.73000000	      9.96565461	     -5.14655374	     11.46059175	      1.00734592	      0.92073179	      0.05835787	     12.95118564	      6.30945640	    -15.94557787	    -16.90004672	     -4.31294435	      0.86259024	    -15.64444109	     -7.01961270	      1.10894449	    -37.53436768	     15.86097343	     -6.30043683	     -8.95438572	      6.85167995	    -16.44996559
      3.74000000	     10.08352729	     -5.56242288	     11.54252257	      1.01701692	      0.92197155	      0.05902108	     12.36399244	      6.93187473	    -15.97093735	    -17.03323975	     -3.83868960	      0.72290431	    -15.07826785	     -7.66723171	      1.13822203	    -39.35238867	     13.68692447	     -5.88753090	     -8.78897809	      7.25522428	    -16.30241432
      3.75000000	     10.21856071	     -5.93751674	     11.65496434	      1.02639097	      0.92314609	      0.05964198	     11.72585989	      7.52012382	    -16.03627946	    -17.08609147	     -3.34433256	      0.56535202	    -14.40796637	     -8.29868349	      1.18148395	    -41.29527224	     11.48867705	     -5.54470118	     -8.68356036	      7.61682548	    -16.15049995
      3.76000000	     10.36884493	     -6.28843950	     11.80880386	      1.03544417	      0.92421913	      0.06020314	     11.04971060	      8.08872482	    -16.14865992	    -17.06388386	     -2.86535679	      0.40185422	    -13.63122732	     -8.92718074	      1.26901000	    -43.35092746	      9.32173186	     -5.27947032	     -8.63375075	      7.95824757	    -16.00476310
      3.77000000	     10.53070915	     -6.62010533	     11.99679966	      1.04416166	      0.92515132	      0.06071487	     10.35712567	      8.63952104	    -16.30665408	    -16.99508474	     -2.37785954	      0.21446061	    -12.75089412	     -9.55522766	      1.39413456	    -45.50067838	      7.22585863	     -4.97024338	     -8.63623773	      8.28384395	    -15.85642781
      3.78000000	     10.70444752	     -6.93600929	     12.21145744	      1.05255404	      0.92594990	      0.06117032	      9.64822097	      9.17669630	    -16.50240014	    -16.87849517	     -1.87786643	      0.01579576	    -11.78477051	    -10.17445927	      1.57034623	    -47.70980204	      5.25544049	     -4.60559506	     -8.68908095	      8.59901015	    -15.68098463
      3.79000000	     10.88815827	     -7.23029413	     12.44634953	      1.06059411	      0.92660942	      0.06157999	      8.94607087	      9.69381621	    -16.69188929	    -16.75421679	     -1.36503032	     -0.21517295	    -10.73809059	    -10.78133293	      1.77391540	    -49.95454694	      3.44744572	     -4.08830302	     -8.79322355	      8.89937830	    -15.53010916
      3.80000000	     11.09483534	     -7.53415966	     12.73456804	      1.06832653	      0.92718502	      0.06187025	      8.21418299	     10.22691839	    -16.92642046	    -16.55796846	     -0.97266712	     -0.38628032	     -9.63106643	    -11.39847187	      2.06439946	    -52.19399710	      1.92064319	     -3.69064963	     -8.93846359	      9.22924236	    -15.40666497
      3.81000000	     11.28684580	     -7.82263960	     13.01004693	      1.07577593	      0.92764569	      0.06213657	      7.51972167	     10.74404273	    -17.12416047	    -16.36958526	     -0.53295002	     -0.61357974	     -8.46644554	    -11.97914491	      2.37690394	    -54.37436332	      0.66960861	     -3.11408559	     -9.09084599	      9.54236637	    -15.26296930
      3.82000000	     11.46860506	     -8.07441887	     13.25205485	      1.08297605	      0.92806154	      0.06239348	      6.84767722	     11.22544790	    -17.25428621	    -16.19115357	     -0.03516710	     -0.92783516	     -7.28475089	    -12.49085759	      2.69532759	    -56.43693094	     -0.27259529	     -2.44367360	     -9.25505633	      9.81137375	    -15.07486346
      3.83000000	     11.65483720	     -8.33384874	     13.49819552	      1.08993510	      0.92845358	      0.06258686	      6.17603156	     11.72083743	    -17.36095729	    -15.97633142	      0.35986355	     -1.21514807	     -6.08462981	    -12.99456496	      3.03306122	    -58.37759316	     -0.75251869	     -2.07043898	     -9.42682303	     10.10011266	    -14.90647181
      3.84000000	     11.85746624	     -8.58120685	     13.70912617	      1.09668594	      0.92888334	      0.06279523	      5.49083473	     12.21646614	    -17.39956220	    -15.74781914	      0.71538036	     -1.43691589	     -4.91931149	    -13.47630203	      3.33176411	    -60.14264305	     -0.77481440	     -1.96290538	     -9.62970910	     10.37644829	    -14.71057504
      3.85000000	     11.98248944	     -8.80272167	     13.86813742	      1.10323742	      0.92923820	      0.06302198	      4.89331935	     12.66933414	    -17.37067859	    -15.52057255	      1.06821353	     -1.78443551	     -3.68651549	    -13.88378770	      3.61386156	    -61.73804849	     -0.42352249	     -2.05446758	     -9.74969820	     10.59943041	    -14.46921986
      3.86000000	     12.08308354	     -8.99743194	     13.97473326	      1.10957262	      0.92959625	      0.06329063	      4.33185924	     13.09211441	    -17.24594151	    -15.30834495	      1.41319341	     -2.19722783	     -2.45356965	    -14.24298168	      3.84328839	    -63.15060353	      0.28785759	     -2.51893284	     -9.85742405	     10.78264872	    -14.22961204
      3.87000000	     12.18626984	     -9.16177181	     14.02042287	      1.11573211	      0.93000371	      0.06359538	      3.77541827	     13.47866232	    -17.07416857	    -15.12375880	      1.75648948	     -2.58457596	     -1.27313738	    -14.56506131	      3.98888250	    -64.35971556	      1.31675556	     -3.29593558	     -9.98508144	     10.92730139	    -13.94106589
      3.88000000	     12.25558910	     -9.29999512	     14.01613231	      1.12173495	      0.93042218	      0.06394501	      3.24159127	     13.83276470	    -16.82694145	    -14.91857528	      2.04360008	     -2.90525922	     -0.10200719	    -14.84161675	      4.08433437	    -65.37150541	      2.53755305	     -4.21017947	    -10.08178257	     11.02611618	    -13.63425332
